<?xml version="1.0" encoding="utf-8"?>
<!-- Generator: Adobe Illustrator 23.0.1, SVG Export Plug-In . SVG Version: 6.00 Build 0)  -->
<svg version="1.1" id="Layer_1" xmlns="http://www.w3.org/2000/svg" xmlns:xlink="http://www.w3.org/1999/xlink" x="0px" y="0px"
	 viewBox="0 0 300 170" style="enable-background:new 0 0 300 170;" xml:space="preserve">
<style type="text/css">
	.st0{fill-rule:evenodd;clip-rule:evenodd;fill:#FFFFFF;}
	.st1{fill:#FFFDFD;}
	.st2{fill:#FFFFFF;}
	.st3{fill-rule:evenodd;clip-rule:evenodd;fill:#E1251B;}
	.st4{fill-rule:evenodd;clip-rule:evenodd;fill:#0075C9;}
	.st5{fill-rule:evenodd;clip-rule:evenodd;fill:#FFD100;}
	.st6{fill-rule:evenodd;clip-rule:evenodd;fill:#F18A00;}
	.st7{fill:#2D2A26;}
	.st8{fill:#231F20;}
	.st9{fill-rule:evenodd;clip-rule:evenodd;fill:#2D2A26;}
</style>
<g>
	<g>
		<g>
			<path class="st0" d="M43.2,62.2c-4.3,2.1-10.4,3.9-16.1,3.9c-4.6,0-8.2-1.4-10.2-4.1c-1.1-1.5-1.6-3.9-1.6-5.5
				c21.4,0.5,34.6-4.4,34.6-18c0-9.9-7.8-15.9-18.5-15.9c-19.3,0-31.1,16.9-31.1,33.2c0,13.9,7.9,22.5,23.1,22.5
				c4.9,0,12-1,17.5-3.1L43.2,62.2L43.2,62.2z M35.1,38.6c0,4.8-6.1,6.5-18.3,6.4c1.1-5,5.2-11,12.5-11C32.9,34,35.1,35.8,35.1,38.6
				z"/>
		</g>
		<g>
			<path class="st0" d="M275,34.4c6.3,0,8.4,5.2,8.4,10.2c0,9.2-4.8,21.7-13.4,21.7c-5.5,0-8.5-4.1-8.5-10.4
				C261.4,47.6,266,34.4,275,34.4L275,34.4z M277.1,22.5c-19,0-31.9,15.2-31.9,33.7c0,13.2,9.1,22,22.6,22
				c18.5,0,31.9-14.3,31.9-33.8C299.7,32.3,291.4,22.5,277.1,22.5z"/>
		</g>
		<g>
			<path class="st0" d="M239.7,63.4c-2.7,1.1-6,2.2-10.6,2.2c-5.9,0-10.5-3.7-10.5-11c0-10,6.9-19.5,18.1-19.5
				c3.2,0,4.9,0.4,6.7,1.1l2.4-12.5c-2.3-1-4.3-1.2-8.9-1.2c-20.3,0-34.8,14.8-34.8,33.8c0,13.8,9.3,21.8,22.5,21.8
				c5.1,0,9.3-0.6,12.6-1.7L239.7,63.4z"/>
		</g>
		<g>
			<path class="st0" d="M156,23.7l10.6,48.3c0.2,1.2,0.2,1.8-0.3,2.6c-2,3.6-5,6.8-8.6,9.3c-3.1,2.2-6.6,3.5-9.1,4.3l3.5,13.4
				c3.5-0.5,10.9-3.2,17.1-9.1c7.1-6.7,13.4-16.4,20.5-30.5l19.1-38.3h-16.6l-9.7,23.5c-2.3,5.8-3.5,9.3-4.7,12.4h-0.2
				c-0.4-3.4-1-7.2-1.7-12.7l-3.3-23.2C172.6,23.7,156,23.7,156,23.7z"/>
		</g>
		<g>
			<path class="st0" d="M75.7,16.1c1.3-0.3,3.4-0.6,6.3-0.6c6.1,0,11.2,2.3,11.2,9.4c0,7.3-6.2,13.4-15.7,13.4c-2.6,0-4.4-0.2-6-0.5
				L75.7,16.1L75.7,16.1z M48.7,77.1h15.4l5-26.5c1.6,0.2,3.8,0.4,6.4,0.4c8.9,0,17.4-2.1,23.5-6.8c5.8-4.5,10-11.5,10-20.7
				c0-7.1-3.1-12.2-8-15.6C95.8,4.1,88.1,3,81.6,3c-10.2,0-14.6,0.5-24,3.5l-2,10.3l4.7-0.5L48.7,77.1z"/>
		</g>
		<g>
			<path class="st0" d="M134,56.7c-0.2,1-0.5,2-0.9,2.8c-1.8,3.4-5.7,6.1-9.8,6.1c-3.7,0-6.1-2.1-5.3-6.3c1.3-6.4,8.4-8.5,17.2-8.4
				L134,56.7L134,56.7z M147,76.1c0-2.9,0.8-7.8,1.8-13l3.7-18.5c2.5-12.5-1.1-23-18.9-23c-7.4,0-13.7,1.5-18.1,3.2l-2.6,12.2
				c3.9-2.2,10.1-4,15.5-4c8.2,0,8.9,4,8.4,6.9l-0.1,0.8c-18.8-0.1-32.6,6.5-35.4,20.4c-1.7,8.5,3.2,16.4,14,16.4
				c6.3,0,12.2-2.3,16.6-6.6h0.3l-0.1,5.3L147,76.1L147,76.1z"/>
		</g>
	</g>
	<g>
		<path class="st1" d="M4.6,111.6l-0.6,4.6h4.8l-0.2,1.4H3.9l-0.6,4.7h5.9L9,123.7H1.4L3,110.2h7.7l-0.2,1.4
			C10.5,111.6,4.6,111.6,4.6,111.6z"/>
		<path class="st1" d="M13.3,116.6c0.5-0.8,1.1-1.5,1.7-1.9c0.6-0.4,1.3-0.7,2-0.7c0.4,0,0.8,0.1,1.1,0.2c0.3,0.2,0.5,0.4,0.8,0.7
			c0.2,0.3,0.3,0.7,0.4,1.1s0.1,1,0,1.5l-0.7,6.1h-1.7l0.7-6.1c0.1-0.8,0-1.3-0.1-1.7s-0.5-0.5-1-0.5c-0.3,0-0.6,0.1-0.9,0.2
			c-0.3,0.2-0.6,0.4-0.9,0.7c-0.3,0.3-0.6,0.7-0.8,1.1c-0.2,0.4-0.5,0.9-0.6,1.4l-0.6,4.8h-1.7l1.1-9.6h0.8c0.4,0,0.6,0.2,0.6,0.6
			L13.3,116.6z"/>
		<path class="st1" d="M31.2,121.2c-0.2,0.4-0.5,0.8-0.7,1.1c-0.3,0.3-0.5,0.6-0.8,0.8c-0.3,0.2-0.6,0.4-0.9,0.5s-0.7,0.2-1,0.2
			c-0.4,0-0.7-0.1-1-0.2c-0.3-0.2-0.6-0.4-0.8-0.7c-0.2-0.3-0.4-0.6-0.5-1.1c-0.1-0.4-0.2-0.9-0.2-1.4c0-0.6,0.1-1.1,0.2-1.7
			s0.3-1,0.6-1.5c0.3-0.5,0.6-0.9,0.9-1.3c0.4-0.4,0.8-0.8,1.2-1c0.5-0.3,0.9-0.5,1.5-0.7s1.1-0.2,1.6-0.2c0.4,0,0.8,0,1.2,0.1
			c0.4,0.1,0.8,0.2,1.2,0.3l-1.1,9.2h-0.9c-0.2,0-0.4-0.1-0.5-0.2s-0.1-0.2-0.1-0.4L31.2,121.2z M31.8,115.3c-0.1,0-0.3-0.1-0.4-0.1
			c-0.1,0-0.3,0-0.4,0c-0.4,0-0.7,0.1-1.1,0.2s-0.7,0.3-1,0.5s-0.6,0.5-0.8,0.8c-0.2,0.3-0.5,0.6-0.6,1s-0.3,0.8-0.4,1.2
			c-0.1,0.4-0.1,0.8-0.1,1.3c0,1.5,0.5,2.3,1.5,2.3c0.3,0,0.6-0.1,0.9-0.3s0.6-0.5,0.8-0.8c0.3-0.3,0.5-0.8,0.7-1.2s0.4-1,0.6-1.5
			L31.8,115.3z"/>
		<path class="st1" d="M35,123.7l1.7-13.9h1.7l-1.7,13.9H35z"/>
		<path class="st1" d="M42,114.2l-1.2,9.6h-1.7l1.2-9.6H42z M42.7,111.2c0,0.2,0,0.3-0.1,0.5s-0.2,0.3-0.3,0.4
			c-0.1,0.1-0.2,0.2-0.4,0.3c-0.1,0.1-0.3,0.1-0.4,0.1c-0.2,0-0.3,0-0.4-0.1c-0.1-0.1-0.3-0.2-0.4-0.3c-0.1-0.1-0.2-0.2-0.2-0.4
			s-0.1-0.3-0.1-0.5c0-0.2,0-0.3,0.1-0.5s0.2-0.3,0.2-0.4c0.1-0.1,0.2-0.2,0.4-0.3c0.1-0.1,0.3-0.1,0.4-0.1c0.2,0,0.3,0,0.4,0.1
			s0.3,0.2,0.4,0.3c0.1,0.1,0.2,0.2,0.3,0.4C42.7,110.8,42.7,111,42.7,111.2z"/>
		<path class="st1" d="M49.4,121.2c-0.2,0.4-0.5,0.8-0.7,1.1c-0.3,0.3-0.5,0.6-0.8,0.8c-0.3,0.2-0.6,0.4-0.9,0.5s-0.7,0.2-1,0.2
			c-0.4,0-0.7-0.1-1-0.2c-0.3-0.2-0.6-0.4-0.8-0.7c-0.2-0.3-0.4-0.6-0.5-1.1c-0.1-0.4-0.2-0.9-0.2-1.4c0-0.6,0.1-1.1,0.2-1.7
			s0.3-1,0.6-1.5c0.3-0.5,0.6-0.9,0.9-1.3c0.4-0.4,0.8-0.8,1.2-1s0.9-0.5,1.5-0.7s1.1-0.2,1.6-0.2c0.4,0,0.8,0,1.2,0.1
			c0.4,0.1,0.8,0.2,1.2,0.3l-1.1,9.2h-0.9c-0.2,0-0.4-0.1-0.5-0.2s-0.1-0.2-0.1-0.4L49.4,121.2z M50,115.3c-0.1,0-0.3-0.1-0.4-0.1
			c-0.1,0-0.3,0-0.4,0c-0.4,0-0.7,0.1-1.1,0.2s-0.7,0.3-1,0.5s-0.6,0.5-0.8,0.8c-0.2,0.3-0.5,0.6-0.7,1s-0.3,0.8-0.4,1.2
			c-0.1,0.4-0.2,0.8-0.2,1.3c0,1.5,0.5,2.3,1.5,2.3c0.3,0,0.6-0.1,0.9-0.3s0.6-0.5,0.8-0.8c0.3-0.3,0.5-0.8,0.7-1.2
			c0.2-0.5,0.4-1,0.6-1.5L50,115.3z"/>
		<path class="st1" d="M55.5,116.6c0.5-0.8,1.1-1.5,1.7-1.9s1.3-0.7,2-0.7c0.4,0,0.8,0.1,1.1,0.2c0.3,0.2,0.5,0.4,0.8,0.7
			c0.2,0.3,0.3,0.7,0.4,1.1s0.1,1,0,1.5l-0.7,6.1h-1.7l0.7-6.1c0.1-0.8,0-1.3-0.1-1.7s-0.5-0.5-1-0.5c-0.3,0-0.6,0.1-0.9,0.2
			c-0.3,0.2-0.6,0.4-0.9,0.7c-0.3,0.3-0.6,0.7-0.8,1.1c-0.2,0.4-0.5,0.9-0.6,1.4l-0.5,4.8h-1.7l1.2-9.6h0.8c0.4,0,0.6,0.2,0.6,0.6
			L55.5,116.6z"/>
		<path class="st1" d="M70.5,114.2l-0.1,0.7c0,0.1-0.1,0.2-0.1,0.3c-0.1,0.1-0.1,0.2-0.2,0.3l-5.5,6.9h4.7l-0.2,1.3h-6.7l0.1-0.7
			c0-0.1,0-0.2,0.1-0.3s0.1-0.2,0.2-0.3l5.5-6.9h-4.6l0.2-1.3L70.5,114.2L70.5,114.2z"/>
		<path class="st1" d="M76.8,121.2c-0.2,0.4-0.5,0.8-0.7,1.1c-0.3,0.3-0.5,0.6-0.8,0.8c-0.3,0.2-0.6,0.4-0.9,0.5
			c-0.3,0.1-0.7,0.2-1,0.2c-0.4,0-0.7-0.1-1-0.2s-0.6-0.4-0.8-0.7c-0.2-0.3-0.4-0.6-0.5-1.1c-0.1-0.4-0.2-0.9-0.2-1.4
			c0-0.6,0.1-1.1,0.2-1.7s0.3-1,0.6-1.5c0.3-0.5,0.6-0.9,0.9-1.3c0.4-0.4,0.8-0.8,1.2-1c0.4-0.3,0.9-0.5,1.4-0.7s1.1-0.2,1.6-0.2
			c0.4,0,0.8,0,1.2,0.1c0.4,0.1,0.8,0.2,1.2,0.3l-1.1,9.2h-0.9c-0.2,0-0.4-0.1-0.4-0.2c-0.1-0.1-0.1-0.2-0.1-0.4L76.8,121.2z
			 M77.5,115.3c-0.1,0-0.3-0.1-0.4-0.1c-0.1,0-0.3,0-0.4,0c-0.4,0-0.7,0.1-1.1,0.2s-0.7,0.3-1,0.5s-0.6,0.5-0.8,0.8
			c-0.2,0.3-0.5,0.6-0.7,1s-0.3,0.8-0.4,1.2c-0.1,0.4-0.2,0.8-0.2,1.3c0,1.5,0.5,2.3,1.4,2.3c0.3,0,0.6-0.1,0.9-0.3s0.6-0.5,0.8-0.8
			c0.3-0.3,0.5-0.8,0.7-1.2c0.2-0.5,0.4-1,0.6-1.5L77.5,115.3z"/>
		<path class="st1" d="M91.2,122.9c-0.3,0.2-0.6,0.4-0.9,0.6s-0.6,0.2-0.9,0.3c-0.3,0.1-0.7,0.1-1,0.1c-0.6,0-1-0.1-1.5-0.3
			c-0.4-0.2-0.8-0.4-1.1-0.8s-0.5-0.8-0.7-1.2c-0.2-0.5-0.2-1-0.2-1.6c0-0.8,0.1-1.5,0.4-2.2c0.2-0.7,0.6-1.3,1-1.9s0.9-1,1.6-1.3
			c0.6-0.3,1.3-0.5,2-0.5c0.6,0,1.2,0.1,1.6,0.3c0.4,0.2,0.8,0.6,1.1,1l-0.5,0.6c0,0.1-0.1,0.1-0.2,0.1c-0.1,0-0.1,0.1-0.2,0.1
			c-0.1,0-0.2,0-0.3-0.1c-0.1-0.1-0.2-0.2-0.3-0.3c-0.1-0.1-0.3-0.2-0.5-0.3c-0.2-0.1-0.5-0.1-0.8-0.1c-0.4,0-0.8,0.1-1.2,0.3
			c-0.4,0.2-0.7,0.6-1,1s-0.5,0.9-0.7,1.4c-0.2,0.6-0.2,1.2-0.2,1.8c0,0.4,0,0.7,0.1,1.1s0.2,0.6,0.4,0.8s0.4,0.4,0.7,0.5
			c0.2,0.1,0.6,0.2,0.9,0.2c0.4,0,0.8-0.1,1.1-0.2c0.3-0.1,0.5-0.3,0.7-0.4s0.4-0.3,0.5-0.4c0.1-0.1,0.3-0.2,0.4-0.2
			c0.1,0,0.2,0.1,0.3,0.2l0.4,0.5C91.8,122.3,91.5,122.7,91.2,122.9z"/>
		<path class="st1" d="M96.9,123.8c-0.5,0-1-0.1-1.4-0.3s-0.8-0.4-1.1-0.8c-0.3-0.3-0.6-0.8-0.7-1.2c-0.2-0.5-0.3-1.1-0.3-1.7
			c0-0.8,0.1-1.6,0.4-2.3s0.6-1.3,1-1.9s1-0.9,1.6-1.3c0.6-0.3,1.2-0.5,1.9-0.5c0.5,0,1,0.1,1.4,0.3s0.8,0.4,1.1,0.8
			s0.6,0.8,0.7,1.2c0.2,0.5,0.3,1.1,0.3,1.7c0,0.8-0.1,1.6-0.4,2.3s-0.6,1.3-1,1.9c-0.4,0.5-1,1-1.6,1.3
			C98.3,123.7,97.6,123.8,96.9,123.8z M97.1,122.5c0.5,0,0.9-0.1,1.2-0.4s0.7-0.6,1-1c0.3-0.4,0.5-0.9,0.6-1.4
			c0.1-0.6,0.2-1.1,0.2-1.7c0-0.9-0.2-1.5-0.5-2c-0.3-0.4-0.8-0.7-1.5-0.7c-0.5,0-0.9,0.1-1.3,0.4s-0.7,0.6-1,1
			c-0.3,0.4-0.5,0.9-0.6,1.4c-0.1,0.6-0.2,1.1-0.2,1.7c0,0.9,0.2,1.6,0.5,2C95.9,122.3,96.4,122.5,97.1,122.5z"/>
		<path class="st1" d="M105.6,116.6c0.5-0.8,1.1-1.5,1.7-1.9c0.6-0.4,1.3-0.7,2-0.7c0.4,0,0.8,0.1,1.1,0.2c0.3,0.2,0.6,0.4,0.8,0.7
			c0.2,0.3,0.3,0.7,0.4,1.1s0.1,1,0,1.5l-0.7,6.1h-1.7l0.7-6.1c0.1-0.8,0-1.3-0.1-1.7s-0.5-0.5-1-0.5c-0.3,0-0.6,0.1-0.9,0.2
			c-0.3,0.2-0.6,0.4-0.9,0.7c-0.3,0.3-0.6,0.7-0.8,1.1c-0.2,0.4-0.5,0.9-0.6,1.4l-0.6,4.8h-1.7l1.2-9.6h0.8c0.4,0,0.6,0.2,0.6,0.6
			L105.6,116.6z"/>
	</g>
	<g>
		<g>
			<path class="st2" d="M58.2,161c4.7,1,16.2,0.7,16.5-6.9c0-3-3.9-5.9-7.6-6.7c-4.6-1-7.5-1-12.1,0c-2.8,1.1-3.7-1.7-1.1-2.6
				c4.9-1.8,24.1-2.2,25,9.3c-0.8,11.4-17.5,10.5-21.3,9.8c-1.5-0.3-2.6-1-2.6-2.9v-9.5c0-2.2,3.3-2.2,3.3,0L58.2,161z"/>
		</g>
		<g>
			<path class="st2" d="M94.3,147.7c-3.7,0-10,11.4-11.9,15.5c-1.1,2.4-4.6,0.7-3.5-1.7c2-4.4,9.5-17.6,15.3-17.5
				c5.9-0.1,13.3,13.1,15.3,17.5c1.1,2.4-2.4,4.2-3.5,1.7C104.2,159.1,98,147.7,94.3,147.7"/>
		</g>
		<g>
			<path class="st2" d="M120.4,160.5c3.7,0,10-11.4,11.9-15.5c1.1-2.4,4.6-0.7,3.5,1.7c-2,4.4-9.5,17.7-15.3,17.5
				c-5.9,0.1-13.3-13.1-15.3-17.5c-1.1-2.5,2.4-4.2,3.5-1.7C110.4,149.1,116.6,160.5,120.4,160.5"/>
		</g>
		<g>
			<path class="st2" d="M142,145.8v16.6c0,2.5-3.7,2.4-3.7-0.1v-16.5C138.3,143.2,142,143.2,142,145.8"/>
		</g>
		<g>
			<path class="st2" d="M160,160.5c3.7,0,10-11.4,11.9-15.5c1.1-2.4,4.6-0.7,3.5,1.7c-2,4.4-9.5,17.7-15.3,17.5
				c-5.9,0.1-13.3-13.1-15.3-17.5c-1.1-2.5,2.4-4.2,3.5-1.7C150,149.1,156.2,160.5,160,160.5"/>
		</g>
		<g>
			<path class="st2" d="M188.8,155.8c1.1,2.3,4.2,4.2,7.3,4.9c4.6,1,7.5,1,12.1,0c2.8-0.9,3.7,1.8,1.1,2.7c-5.1,1.7-24,2.3-25.1-9.2
				c0.6-11,15.7-10.7,21.4-10c2.8,0.4,2.2,3.3-0.7,2.7c-3.9-0.5-14.3-1.1-16.3,5.8h10.7c1.7,0,1.7,3.1,0,3.1H188.8z"/>
		</g>
		<g>
			<path class="st2" d="M248.5,161c4.7,1,16.2,0.7,16.5-6.9c0-3-3.9-5.9-7.6-6.7c-4.6-1-7.5-1-12.1,0c-2.8,1.1-3.7-1.7-1.1-2.6
				c4.9-1.8,24.1-2.2,25,9.3c-0.8,11.4-17.6,10.5-21.3,9.8c-1.5-0.3-2.6-1-2.6-2.9v-9.5c0-2.2,3.3-2.2,3.3,0L248.5,161L248.5,161z"
				/>
		</g>
		<g>
			<path class="st2" d="M284.5,147.7c-3.7,0-10,11.4-11.9,15.5c-1.1,2.4-4.6,0.7-3.5-1.7c2-4.4,9.5-17.6,15.3-17.5
				c5.9-0.1,13.3,13.1,15.3,17.5c1.1,2.4-2.4,4.2-3.5,1.7C294.5,159.1,288.2,147.7,284.5,147.7"/>
		</g>
		<g>
			<path class="st2" d="M181.6,145.8v16.6c0,2.5-3.7,2.4-3.7-0.1v-16.5C177.9,143.2,181.6,143.2,181.6,145.8"/>
		</g>
		<g>
			<path class="st2" d="M226.7,157.5c-2.3-4.2-4.9-9.9-6.6-10c-4.3,0-2.4,8.5-2.4,15.2c0,2.3-3.7,2.3-3.7-0.3
				c0-8.5-1.8-18.6,6.3-18.6c2.4,0,4.6,3.5,6.6,6.9c2.3,4.3,5.1,9.9,6.8,10c4.3,0,2.3-8.3,2.3-15c0-2.3,3.7-2.3,3.7,0.3
				c0,8.5,1.9,18.4-6.2,18.4C231.1,164.4,228.7,160.8,226.7,157.5"/>
		</g>
		<g>
			<g>
				<path class="st3" d="M6.9,148.8c0.1,0.6,0,3.2-2.4,6.7c-2.5,3.9,1.4,10.4,9.3,8.8c1.7,0.6,3.6,0.7,4.8,0.7
					c1.2,0,3.1-0.1,4.8-0.7c7.9,1.7,11.8-4.9,9.3-8.8c-2.4-3.5-2.4-6.1-2.4-6.7H6.9z"/>
			</g>
			<g>
				<path class="st4" d="M18.6,165c-7.7-0.2-9.1-3.7-7-4.5c1.2-0.4,2.9-1.2,2.9-1.2c-0.8-4,0.5-9.1,4.1-9.1c3.6,0,4.9,5.3,4.1,9.2
					c0,0,1.6,0.6,2.9,1.1C27.6,161.3,26.3,164.8,18.6,165"/>
			</g>
			<g>
				<path class="st5" d="M15.7,162.2c-2-5.7-0.2-11.1,2.9-11.1c3,0,5,5.2,2.9,11.1c0,0-1-0.2-3-0.2C17,162,15.7,162.2,15.7,162.2"/>
			</g>
			<g>
				<path class="st6" d="M18.6,165.1c3.1,0,5.6-0.7,5.6-1.6c0-0.9-2.4-1.6-5.6-1.6c-3.1,0-5.5,0.7-5.5,1.6
					C13.1,164.4,15.5,165.1,18.6,165.1"/>
			</g>
			<g>
				<path class="st4" d="M8.4,151.6h3.7c0.6,0,1.1,0.5,1.1,1.1v2.5c0,0.6-0.5,1.1-1.1,1.1H8.4c-0.6,0-1.1-0.5-1.1-1.1v-2.5
					C7.3,152.1,7.8,151.6,8.4,151.6"/>
			</g>
			<g>
				<path class="st7" d="M8.8,152.2h2.9c0.5,0,0.8,0.4,0.8,0.8v1.8c0,0.4-0.4,0.8-0.8,0.8H8.8c-0.4,0-0.8-0.4-0.8-0.8V153
					C8,152.6,8.3,152.2,8.8,152.2"/>
			</g>
			<g>
				<path class="st5" d="M12.5,154.4c-1.3-0.1-1.8-1.7-1.9-2.2h1.1c0.5,0,0.8,0.4,0.8,0.8V154.4z"/>
			</g>
			<g>
				<path class="st5" d="M9.9,152.2c-0.1,0.4-0.5,2.1-1.9,2.2V153c0-0.4,0.4-0.8,0.8-0.8H9.9z"/>
			</g>
			<g>
				<path class="st4" d="M25.1,151.6h3.7c0.6,0,1.1,0.5,1.1,1.1v2.5c0,0.6-0.5,1.1-1.1,1.1h-3.7c-0.6,0-1.1-0.5-1.1-1.1v-2.5
					C24.1,152.1,24.6,151.6,25.1,151.6"/>
			</g>
			<g>
				<path class="st7" d="M25.6,152.2h3c0.4,0,0.8,0.4,0.8,0.8v1.8c0,0.4-0.4,0.8-0.8,0.8h-3c-0.4,0-0.8-0.4-0.8-0.8V153
					C24.8,152.6,25.1,152.2,25.6,152.2"/>
			</g>
			<g>
				<path class="st5" d="M29.3,154.4c-1.3-0.1-1.8-1.7-1.9-2.2h1.1c0.4,0,0.8,0.4,0.8,0.8V154.4z"/>
			</g>
			<g>
				<path class="st5" d="M26.7,152.2c-0.1,0.4-0.5,2.1-1.9,2.2V153c0-0.4,0.4-0.8,0.8-0.8H26.7z"/>
			</g>
			<g>
				<path class="st3" d="M26.3,139.1c-0.4-1.3-0.5-2,0.8-2h2.7c1.6,0,0.9,1.2,0.8,2.5c-0.2,1.7-0.2,2.2-0.2,2.2
					S26.4,139.2,26.3,139.1"/>
			</g>
			<g>
				<path class="st6" d="M18.6,148.7c-4,0-9.6,0.4-13.1,0.6c-2.7,0.2-4.8-1.9-3-3.8c3.9-4.2,13.3-9.5,16.1-9.5
					c3,0,12.3,5.3,16.1,9.5c1.8,2,0,3.8-2.7,3.8C29,149.3,22.6,148.7,18.6,148.7"/>
			</g>
			<g>
				<path class="st8" d="M20.8,158.1c0-0.3,0.2-0.5,0.5-0.5c0.3,0,0.5,0.2,0.5,0.5c0,0.3-0.2,0.5-0.5,0.5
					C21,158.6,20.8,158.4,20.8,158.1"/>
			</g>
			<g>
				<path class="st9" d="M18.6,161.8c-1.6,0-2.9,0.2-2.9,0.2c-1.9-5.6-0.2-10.8,2.9-10.8c3.1,0,4.8,5.3,2.9,10.8
					C21.5,162,20.3,161.8,18.6,161.8 M21.5,162.2c1.6,0.3,2.6,0.7,2.6,1.2c0,0.8-2.4,1.5-5.4,1.5c-3,0-5.5-0.6-5.5-1.5
					c0-0.5,1-1,2.6-1.2c0,0,1.7-0.2,2.8-0.2C19.7,162,21.5,162.2,21.5,162.2 M21.7,162.1c2-5.8,0.1-11.1-3.1-11.1
					c-3.1,0-5.1,5.3-3.1,11.1c-1.6,0.3-2.6,0.8-2.6,1.4c0,0.2,0.1,0.4,0.3,0.5c-2.6-1.1-2.8-3-1.4-3.5c1.2-0.4,2.7-1,2.7-1
					c-0.8-3.9,0.4-9.1,4-9.1c3.6,0,4.8,5.2,4,9.1c0,0,1.5,0.6,2.7,1c1.4,0.5,1.2,2.3-1.4,3.5c0.2-0.2,0.3-0.3,0.3-0.5
					C24.3,162.9,23.2,162.4,21.7,162.1 M26.5,139.1c-0.3-1.2-0.3-1.7,0.7-1.7h2.3c1.5,0,0.9,1.1,0.8,2.3c-0.1,0.7-0.1,1.3-0.2,1.7
					C29,140.5,27.7,139.8,26.5,139.1 M23.8,164.3c7.4,1.2,11-5,8.6-8.7c-1.8-2.7-2.3-5-2.3-6.2c-4.8-0.3-8.2-0.5-11.5-0.5
					c-3.3,0-6.7,0.3-11.5,0.5c-0.1,1.2-0.5,3.4-2.3,6.2c-2.4,3.7,1.2,10,8.6,8.7c-3.1-1.2-3.5-3.2-1.9-3.9c1.2-0.5,2.9-1.1,2.9-1.1
					c-0.8-4,0.6-9.3,4.2-9.3c3.6,0,5,5.3,4.2,9.3c0,0,1.7,0.6,2.9,1.1C27.4,161.1,27,163.1,23.8,164.3 M18.6,148.4
					c-4.2,0.1-8.1,0.4-12.8,0.7c-2.9,0.2-4.5-1.7-2.7-3.7c2.7-2.9,11.8-9,15.5-9s12.8,6,15.5,9c1.8,2,0.2,3.9-2.7,3.7
					C26.7,148.8,22.8,148.5,18.6,148.4 M26,138.8c0-0.1-0.1-0.2-0.1-0.4c-0.2-0.7,0-1.5,1.2-1.5h2.7c1.6,0,1.4,1.1,1.1,2.2
					c-0.2,0.8-0.3,1.7-0.4,2.6c0,0,2.2,1.6,3.4,2.7c3.9,3.3,1.4,5.4-2.3,5.2c-0.4,0-0.7,0-1.1-0.1c0,1.1,0.3,3.1,2,5.4
					c4.3,5.1-1.4,11.5-9.4,9.7c-1.3,0.4-3.4,0.6-4.6,0.6c-1.2,0-3.3-0.2-4.6-0.6c-8,1.8-13.7-4.6-9.4-9.7c1.7-2.3,2-4.3,2-5.4
					l-1.1,0.1c-3.7,0.2-6.2-1.9-2.3-5.2c5.7-4.8,12.7-8.4,15.3-8.4C20.1,135.9,22.9,137,26,138.8"/>
			</g>
			<g>
				<path class="st7" d="M12.1,156.4H8.4c-0.6,0-1.1-0.5-1.1-1.1v-2.5c0-0.6,0.5-1.1,1.1-1.1h3.7c0.6,0,1.1,0.5,1.1,1.1v2.5
					C13.2,155.9,12.7,156.4,12.1,156.4z M8.4,151.7c-0.6,0-1,0.4-1,1v2.5c0,0.6,0.5,1,1,1h3.7c0.6,0,1-0.5,1-1v-2.5c0-0.6-0.5-1-1-1
					H8.4z"/>
			</g>
			<g>
				<path class="st7" d="M28.9,156.4h-3.7c-0.6,0-1.1-0.5-1.1-1.1v-2.5c0-0.6,0.5-1.1,1.1-1.1h3.7c0.6,0,1.1,0.5,1.1,1.1v2.5
					C30,155.9,29.5,156.4,28.9,156.4z M25.1,151.7c-0.6,0-1,0.4-1,1v2.5c0,0.6,0.4,1,1,1h3.7c0.6,0,1-0.5,1-1v-2.5c0-0.6-0.5-1-1-1
					H25.1z"/>
			</g>
		</g>
	</g>
</g>
</svg>
